<svg width="167" height="85" viewBox="0 0 167 85" fill="none" xmlns="http://www.w3.org/2000/svg">
<path d="M3.49921 13.178C3.49921 7.65516 7.97636 3.17801 13.4992 3.17801H153.499C159.022 3.17801 163.499 7.65516 163.499 13.178V70.178C163.499 75.7009 159.022 80.178 153.499 80.178H13.4992C7.97636 80.178 3.49921 75.7009 3.49921 70.178V13.178Z" fill="#8D8D8D"/>
<path d="M127.074 37.3008L3.6897 37.142V41.4701H127.074H127.698H162.953V37.3008H127.074Z" fill="#606060"/>
<path d="M127.698 41.4701H127.074M127.074 41.4701H3.6897V37.142L127.074 37.3008H162.953V41.4701H127.074Z" stroke="#606060"/>
<path d="M2 36.3334V42.1053" stroke="white" stroke-width="3"/>
<rect x="24.4714" y="21.5316" width="22.6628" height="10.8112" rx="2" fill="#373737"/>
<rect x="28.0975" y="21.5316" width="15.4107" height="10.8112" fill="#D9D9D9"/>
<rect x="72.0846" y="21.5316" width="22.6628" height="10.8112" rx="2" fill="#373737"/>
<rect x="75.7107" y="21.5316" width="15.4107" height="10.8112" fill="#D9D9D9"/>
<rect x="119.697" y="21.5316" width="22.6628" height="10.8112" rx="2" fill="#373737"/>
<rect x="123.323" y="21.5316" width="15.4107" height="10.8112" fill="#D9D9D9"/>
<path d="M3.46768 10.1575C4.60994 8.01343 8.06453 3.71498 10.6375 3.68435C13.324 3.49292 17.5829 3.18662 13.1262 3.49292C15.0359 3.34034 18.4642 3.14068 20.0729 3.2752L36.5585 3.37806H100.032C106.46 3.9239 120.587 6.04323 125.67 10.1539C83.9248 10.1284 3.46768 10.0972 3.46768 10.1575Z" fill="#606060"/>
<path d="M128.037 10.0622C127.426 10.0618 126.299 10.1542 125.67 10.1539M20.0729 3.2752C18.4642 3.14068 15.0359 3.34034 13.1262 3.49292C17.5829 3.18662 13.324 3.49292 10.6375 3.68435C8.06453 3.71498 4.60994 8.01343 3.46768 10.1575C3.46768 10.0972 83.9248 10.1284 125.67 10.1539M20.0729 3.2752C20.5499 3.31508 20.8669 3.38434 20.937 3.49292C21.2433 3.96769 20.4885 3.54559 20.0729 3.2752ZM20.0729 3.2752L36.5585 3.37806H100.032C106.46 3.9239 120.587 6.04323 125.67 10.1539" stroke="#606060"/>
<path d="M163.953 10.1575C162.81 8.01343 159.356 3.71498 156.783 3.68435C154.096 3.49292 149.837 3.18662 154.294 3.49292C152.384 3.34034 148.956 3.14068 147.348 3.2752L130.862 3.37806H67.3881C60.9601 3.9239 46.8333 6.04323 41.7504 10.1539C83.4956 10.1284 163.953 10.0972 163.953 10.1575Z" fill="#606060"/>
<path d="M39.383 10.0622C39.9944 10.0618 41.1213 10.1542 41.7504 10.1539M147.348 3.2752C148.956 3.14068 152.384 3.34034 154.294 3.49292C149.837 3.18662 154.096 3.49292 156.783 3.68435C159.356 3.71498 162.81 8.01343 163.953 10.1575C163.953 10.0972 83.4956 10.1284 41.7504 10.1539M147.348 3.2752C146.871 3.31508 146.554 3.38434 146.483 3.49292C146.177 3.96769 146.932 3.54559 147.348 3.2752ZM147.348 3.2752L130.862 3.37806H67.3881C60.9601 3.9239 46.8333 6.04323 41.7504 10.1539" stroke="#606060"/>
<path d="M123.796 8.94522C124.156 9.09295 126.425 9.94613 126.65 10.4044" stroke="#606060"/>
<path d="M3.18774 11.3218C3.31022 10.1962 4.82535 5.29284 7.87661 3.15137" stroke="white"/>
<path d="M17.082 80.178C17.082 80.7945 17.2034 81.405 17.4393 81.9746C17.6753 82.5442 18.0211 83.0617 18.457 83.4977C18.893 83.9336 19.4105 84.2794 19.9801 84.5154C20.5497 84.7513 21.1602 84.8727 21.7767 84.8727C22.3932 84.8727 23.0037 84.7513 23.5733 84.5154C24.1429 84.2794 24.6604 83.9336 25.0964 83.4977C25.5323 83.0617 25.8781 82.5442 26.1141 81.9746C26.35 81.405 26.4714 80.7945 26.4714 80.178L21.7767 80.178H17.082Z" fill="black"/>
<path d="M30.0413 80.178C30.0413 80.7945 30.1628 81.405 30.3987 81.9746C30.6346 82.5442 30.9804 83.0617 31.4164 83.4977C31.8523 83.9336 32.3699 84.2794 32.9395 84.5154C33.509 84.7513 34.1195 84.8727 34.7361 84.8727C35.3526 84.8727 35.9631 84.7513 36.5327 84.5154C37.1022 84.2794 37.6198 83.9336 38.0557 83.4977C38.4917 83.0617 38.8375 82.5442 39.0734 81.9746C39.3094 81.405 39.4308 80.7945 39.4308 80.178L34.7361 80.178H30.0413Z" fill="black"/>
<path d="M43.0007 80.178C43.0007 80.7945 43.1221 81.405 43.358 81.9746C43.594 82.5442 43.9398 83.0617 44.3757 83.4977C44.8117 83.9336 45.3292 84.2794 45.8988 84.5154C46.4684 84.7513 47.0789 84.8727 47.6954 84.8727C48.3119 84.8727 48.9224 84.7513 49.492 84.5154C50.0616 84.2794 50.5791 83.9336 51.0151 83.4977C51.451 83.0617 51.7968 82.5442 52.0328 81.9746C52.2687 81.405 52.3901 80.7945 52.3901 80.178L47.6954 80.178H43.0007Z" fill="black"/>
<path d="M114.58 80.178C114.58 80.7945 114.701 81.405 114.937 81.9746C115.173 82.5442 115.519 83.0617 115.955 83.4977C116.391 83.9336 116.908 84.2794 117.478 84.5154C118.048 84.7513 118.658 84.8727 119.275 84.8727C119.891 84.8727 120.502 84.7513 121.071 84.5154C121.641 84.2794 122.158 83.9336 122.594 83.4977C123.03 83.0617 123.376 82.5442 123.612 81.9746C123.848 81.405 123.969 80.7945 123.969 80.178L119.275 80.178H114.58Z" fill="black"/>
<path d="M127.539 80.178C127.539 80.7945 127.661 81.405 127.897 81.9746C128.133 82.5442 128.478 83.0617 128.914 83.4977C129.35 83.9336 129.868 84.2794 130.437 84.5154C131.007 84.7513 131.617 84.8727 132.234 84.8727C132.85 84.8727 133.461 84.7513 134.031 84.5154C134.6 84.2794 135.118 83.9336 135.554 83.4977C135.99 83.0617 136.335 82.5442 136.571 81.9746C136.807 81.405 136.929 80.7945 136.929 80.178L132.234 80.178H127.539Z" fill="black"/>
<path d="M140.499 80.178C140.499 80.7945 140.62 81.405 140.856 81.9746C141.092 82.5442 141.438 83.0617 141.874 83.4977C142.31 83.9336 142.827 84.2794 143.397 84.5154C143.966 84.7513 144.577 84.8727 145.193 84.8727C145.81 84.8727 146.42 84.7513 146.99 84.5154C147.559 84.2794 148.077 83.9336 148.513 83.4977C148.949 83.0617 149.295 82.5442 149.531 81.9746C149.767 81.405 149.888 80.7945 149.888 80.178L145.193 80.178H140.499Z" fill="black"/>
<path d="M154.933 1C159.831 3.41107 164.309 8.34801 164.003 13.2849" stroke="white"/>
<path d="M163.391 5.74561L165.878 13.0553" stroke="white" stroke-width="2"/>
<path d="M4.02136 42.5H163.021V70C163.021 75.2467 158.768 79.5 153.521 79.5H13.5214C8.27466 79.5 4.02136 75.2467 4.02136 70V42.5Z" fill="#69CEFA" stroke="black"/>
<path d="M79.1854 53V69H77.2479V55.0312H77.1542L73.2479 57.625V55.6562L77.2479 53H79.1854ZM89.1932 69.2187C88.162 69.2187 87.2427 69.0417 86.4354 68.6875C85.6333 68.3333 84.9953 67.8411 84.5214 67.2109C84.0526 66.5755 83.7974 65.8385 83.7557 65H85.7245C85.7662 65.5156 85.9432 65.9609 86.2557 66.3359C86.5682 66.7057 86.9771 66.9922 87.4823 67.1953C87.9875 67.3984 88.5474 67.5 89.162 67.5C89.8495 67.5 90.4589 67.3802 90.9901 67.1406C91.5214 66.901 91.938 66.5677 92.2401 66.1406C92.5422 65.7135 92.6932 65.2188 92.6932 64.6562C92.6932 64.0677 92.5474 63.5495 92.2557 63.1016C91.9641 62.6484 91.537 62.2943 90.9745 62.0391C90.412 61.7839 89.7245 61.6562 88.912 61.6562H87.6307V59.9375H88.912C89.5474 59.9375 90.1047 59.8229 90.5839 59.5937C91.0682 59.3646 91.4458 59.0417 91.7167 58.625C91.9927 58.2083 92.1307 57.7187 92.1307 57.1562C92.1307 56.6146 92.0109 56.1432 91.7714 55.7422C91.5318 55.3411 91.1932 55.0286 90.7557 54.8047C90.3234 54.5807 89.813 54.4687 89.2245 54.4687C88.6724 54.4687 88.1516 54.5703 87.662 54.7734C87.1776 54.9714 86.7818 55.2604 86.4745 55.6406C86.1672 56.0156 86.0005 56.4688 85.9745 57H84.0995C84.1307 56.1615 84.3833 55.4271 84.8573 54.7969C85.3313 54.1615 85.951 53.6667 86.7167 53.3125C87.4875 52.9583 88.3339 52.7812 89.2557 52.7812C90.2453 52.7812 91.0943 52.9818 91.8026 53.3828C92.5109 53.7786 93.0552 54.3021 93.4354 54.9531C93.8156 55.6042 94.0057 56.3073 94.0057 57.0625C94.0057 57.9635 93.7688 58.7318 93.2948 59.3672C92.8261 60.0026 92.188 60.4427 91.3807 60.6875V60.8125C92.3912 60.9792 93.1802 61.4089 93.7479 62.1016C94.3156 62.7891 94.5995 63.6406 94.5995 64.6562C94.5995 65.526 94.3625 66.3073 93.8886 67C93.4198 67.6875 92.7792 68.2292 91.9667 68.625C91.1542 69.0208 90.2297 69.2187 89.1932 69.2187Z" fill="black"/>
</svg>
