<svg width="168" height="85" viewBox="0 0 168 85" fill="none" xmlns="http://www.w3.org/2000/svg">
<path d="M3.91696 12.6571C3.91696 7.13423 8.39411 2.65707 13.917 2.65707H153.917C159.44 2.65707 163.917 7.13423 163.917 12.6571V69.6571C163.917 75.1799 159.44 79.6571 153.917 79.6571H13.917C8.39411 79.6571 3.91696 75.1799 3.91696 69.6571V12.6571Z" fill="#8D8D8D"/>
<path d="M127.491 36.7799L4.10745 36.6211V40.9492H127.491H128.116H163.37V36.7799H127.491Z" fill="#606060"/>
<path d="M128.116 40.9492H127.491M127.491 40.9492H4.10745V36.6211L127.491 36.7799H163.37V40.9492H127.491Z" stroke="#606060"/>
<path d="M2.41776 35.8124V41.5843" stroke="white" stroke-width="3"/>
<rect x="24.8892" y="21.0106" width="22.6628" height="10.8112" rx="2" fill="#373737"/>
<rect x="28.5152" y="21.0106" width="15.4107" height="10.8112" fill="#D9D9D9"/>
<rect x="72.5024" y="21.0106" width="22.6628" height="10.8112" rx="2" fill="#373737"/>
<rect x="76.1284" y="21.0106" width="15.4107" height="10.8112" fill="#D9D9D9"/>
<rect x="120.115" y="21.0106" width="22.6628" height="10.8112" rx="2" fill="#373737"/>
<rect x="123.741" y="21.0106" width="15.4107" height="10.8112" fill="#D9D9D9"/>
<path d="M3.88544 9.63661C5.0277 7.49249 8.48229 3.19405 11.0552 3.16342C13.7418 2.97198 18.0007 2.66568 13.544 2.97199C15.4537 2.81941 18.8819 2.61975 20.4906 2.75426L36.9762 2.85713H100.45C106.878 3.40296 121.005 5.5223 126.088 9.63293C84.3426 9.6075 3.88543 9.57625 3.88544 9.63661Z" fill="#606060"/>
<path d="M128.455 9.54126C127.844 9.54088 126.717 9.63331 126.088 9.63293M20.4906 2.75426C18.8819 2.61975 15.4537 2.81941 13.544 2.97199C18.0007 2.66568 13.7418 2.97198 11.0552 3.16342C8.48229 3.19405 5.0277 7.49249 3.88544 9.63661C3.88543 9.57625 84.3426 9.6075 126.088 9.63293M20.4906 2.75426C20.9676 2.79414 21.2847 2.86341 21.3547 2.97199C21.661 3.44676 20.9063 3.02466 20.4906 2.75426ZM20.4906 2.75426L36.9762 2.85713H100.45C106.878 3.40296 121.005 5.5223 126.088 9.63293" stroke="#606060"/>
<path d="M164.37 9.63661C163.228 7.49249 159.774 3.19405 157.201 3.16342C154.514 2.97198 150.255 2.66568 154.712 2.97199C152.802 2.81941 149.374 2.61975 147.765 2.75426L131.28 2.85713H67.8059C61.3778 3.40296 47.251 5.5223 42.1682 9.63293C83.9134 9.6075 164.371 9.57625 164.37 9.63661Z" fill="#606060"/>
<path d="M39.8008 9.54126C40.4121 9.54088 41.5391 9.63331 42.1682 9.63293M147.765 2.75426C149.374 2.61975 152.802 2.81941 154.712 2.97199C150.255 2.66568 154.514 2.97198 157.201 3.16342C159.774 3.19405 163.228 7.49249 164.37 9.63661C164.371 9.57625 83.9134 9.6075 42.1682 9.63293M147.765 2.75426C147.288 2.79414 146.971 2.86341 146.901 2.97199C146.595 3.44676 147.35 3.02466 147.765 2.75426ZM147.765 2.75426L131.28 2.85713H67.8059C61.3778 3.40296 47.251 5.5223 42.1682 9.63293" stroke="#606060"/>
<path d="M124.214 8.42429C124.574 8.57202 126.843 9.42519 127.067 9.88348" stroke="#606060"/>
<path d="M3.6055 10.8008C3.72797 9.67527 5.24311 4.7719 8.29436 2.63043" stroke="white"/>
<path d="M17.4997 79.6571C17.4997 80.2736 17.6212 80.8841 17.8571 81.4537C18.093 82.0233 18.4388 82.5408 18.8748 82.9768C19.3107 83.4127 19.8283 83.7585 20.3979 83.9944C20.9675 84.2304 21.5779 84.3518 22.1945 84.3518C22.811 84.3518 23.4215 84.2304 23.9911 83.9944C24.5606 83.7585 25.0782 83.4127 25.5141 82.9768C25.9501 82.5408 26.2959 82.0233 26.5318 81.4537C26.7678 80.8841 26.8892 80.2736 26.8892 79.6571L22.1945 79.6571H17.4997Z" fill="black"/>
<path d="M30.4591 79.6571C30.4591 80.2736 30.5805 80.8841 30.8164 81.4537C31.0524 82.0233 31.3982 82.5408 31.8341 82.9768C32.2701 83.4127 32.7876 83.7585 33.3572 83.9944C33.9268 84.2304 34.5373 84.3518 35.1538 84.3518C35.7703 84.3518 36.3808 84.2304 36.9504 83.9944C37.52 83.7585 38.0375 83.4127 38.4735 82.9768C38.9094 82.5408 39.2552 82.0233 39.4912 81.4537C39.7271 80.8841 39.8485 80.2736 39.8485 79.6571L35.1538 79.6571H30.4591Z" fill="black"/>
<path d="M43.4184 79.6571C43.4184 80.2736 43.5399 80.8841 43.7758 81.4537C44.0117 82.0233 44.3575 82.5408 44.7935 82.9768C45.2294 83.4127 45.747 83.7585 46.3166 83.9944C46.8862 84.2304 47.4966 84.3518 48.1132 84.3518C48.7297 84.3518 49.3402 84.2304 49.9098 83.9944C50.4793 83.7585 50.9969 83.4127 51.4328 82.9768C51.8688 82.5408 52.2146 82.0233 52.4505 81.4537C52.6865 80.8841 52.8079 80.2736 52.8079 79.6571L48.1132 79.6571H43.4184Z" fill="black"/>
<path d="M114.998 79.6571C114.998 80.2736 115.119 80.8841 115.355 81.4537C115.591 82.0233 115.937 82.5408 116.373 82.9768C116.809 83.4127 117.326 83.7585 117.896 83.9944C118.465 84.2304 119.076 84.3518 119.692 84.3518C120.309 84.3518 120.919 84.2304 121.489 83.9944C122.059 83.7585 122.576 83.4127 123.012 82.9768C123.448 82.5408 123.794 82.0233 124.03 81.4537C124.266 80.8841 124.387 80.2736 124.387 79.6571L119.692 79.6571H114.998Z" fill="black"/>
<path d="M127.957 79.6571C127.957 80.2736 128.078 80.8841 128.314 81.4537C128.55 82.0233 128.896 82.5408 129.332 82.9768C129.768 83.4127 130.286 83.7585 130.855 83.9944C131.425 84.2304 132.035 84.3518 132.652 84.3518C133.268 84.3518 133.879 84.2304 134.448 83.9944C135.018 83.7585 135.535 83.4127 135.971 82.9768C136.407 82.5408 136.753 82.0233 136.989 81.4537C137.225 80.8841 137.346 80.2736 137.346 79.6571L132.652 79.6571H127.957Z" fill="black"/>
<path d="M140.916 79.6571C140.916 80.2736 141.038 80.8841 141.274 81.4537C141.51 82.0233 141.855 82.5408 142.291 82.9768C142.727 83.4127 143.245 83.7585 143.814 83.9944C144.384 84.2304 144.995 84.3518 145.611 84.3518C146.228 84.3518 146.838 84.2304 147.408 83.9944C147.977 83.7585 148.495 83.4127 148.931 82.9768C149.367 82.5408 149.712 82.0233 149.948 81.4537C150.184 80.8841 150.306 80.2736 150.306 79.6571L145.611 79.6571H140.916Z" fill="black"/>
<path d="M155.351 0.479065C160.249 2.89014 164.727 7.82707 164.421 12.764" stroke="white"/>
<path d="M163.808 5.22467L166.296 12.5344" stroke="white" stroke-width="2"/>
<path d="M4.43912 41.9791H163.439V69.4791C163.439 74.7258 159.186 78.9791 153.939 78.9791H13.9391C8.69241 78.9791 4.43912 74.7258 4.43912 69.4791V41.9791Z" fill="#69CEFA" stroke="black"/>
<path d="M79.5495 52.4791V68.4791H77.612V54.5103H77.5182L73.612 57.1041V55.1353L77.612 52.4791H79.5495ZM83.776 65.1978V63.6041L90.8073 52.4791H91.9635V54.9478H91.1823L85.8698 63.3541V63.4791H95.3385V65.1978H83.776ZM91.3073 68.4791V64.7134V63.9713V52.4791H93.151V68.4791H91.3073Z" fill="black"/>
</svg>
