<svg width="169" height="83" viewBox="0 0 169 83" fill="none" xmlns="http://www.w3.org/2000/svg">
<path d="M3.49918 11.0266C3.49918 5.50379 7.97633 1.02664 13.4992 1.02664H98.2449C134.284 1.02664 163.499 30.242 163.499 66.2809C163.499 72.7679 158.24 78.0266 151.753 78.0266H13.4992C7.97633 78.0266 3.49918 73.5495 3.49918 68.0266V11.0266Z" fill="#8D8D8D"/>
<line y1="-0.5" x2="7.7989" y2="-0.5" transform="matrix(0.377597 0.92597 -0.997137 0.0756214 158.809 48.9082)" stroke="white"/>
<path d="M162.999 40.5266H3.99918V68.0266C3.99918 73.2733 8.25247 77.5266 13.4992 77.5266H143.499C154.269 77.5266 162.999 68.7962 162.999 58.0266V40.5266Z" fill="#EF5454" stroke="black"/>
<path d="M83.5578 67.2454C82.5265 67.2454 81.6073 67.0683 80.8 66.7141C79.9979 66.36 79.3599 65.8678 78.8859 65.2376C78.4172 64.6022 78.1619 63.8652 78.1203 63.0266H80.089C80.1307 63.5423 80.3078 63.9876 80.6203 64.3626C80.9328 64.7324 81.3416 65.0188 81.8468 65.222C82.352 65.4251 82.9119 65.5266 83.5265 65.5266C84.214 65.5266 84.8234 65.4069 85.3547 65.1673C85.8859 64.9277 86.3026 64.5944 86.6047 64.1673C86.9067 63.7402 87.0578 63.2454 87.0578 62.6829C87.0578 62.0944 86.9119 61.5761 86.6203 61.1282C86.3286 60.6751 85.9015 60.3209 85.339 60.0657C84.7765 59.8105 84.089 59.6829 83.2765 59.6829H81.9953V57.9641H83.2765C83.9119 57.9641 84.4692 57.8496 84.9484 57.6204C85.4328 57.3912 85.8104 57.0683 86.0812 56.6516C86.3573 56.235 86.4953 55.7454 86.4953 55.1829C86.4953 54.6412 86.3755 54.1699 86.1359 53.7688C85.8963 53.3678 85.5578 53.0553 85.1203 52.8313C84.688 52.6074 84.1776 52.4954 83.589 52.4954C83.0369 52.4954 82.5161 52.597 82.0265 52.8001C81.5422 52.998 81.1463 53.2871 80.839 53.6673C80.5317 54.0423 80.3651 54.4954 80.339 55.0266H78.464C78.4953 54.1881 78.7479 53.4537 79.2218 52.8235C79.6958 52.1881 80.3156 51.6933 81.0812 51.3391C81.852 50.985 82.6984 50.8079 83.6203 50.8079C84.6099 50.8079 85.4588 51.0084 86.1672 51.4095C86.8755 51.8053 87.4198 52.3287 87.8 52.9798C88.1802 53.6308 88.3703 54.3339 88.3703 55.0891C88.3703 55.9902 88.1333 56.7584 87.6593 57.3938C87.1906 58.0292 86.5526 58.4694 85.7453 58.7141V58.8391C86.7557 59.0058 87.5448 59.4355 88.1125 60.1282C88.6802 60.8157 88.964 61.6673 88.964 62.6829C88.964 63.5527 88.727 64.3339 88.2531 65.0266C87.7843 65.7141 87.1437 66.2558 86.3312 66.6516C85.5187 67.0475 84.5942 67.2454 83.5578 67.2454Z" fill="black"/>
<path d="M128.192 8.83823C117.855 17.6497 108.894 33.875 160.491 47.5697C157.447 29.4484 138.468 13.8272 128.192 8.83823Z" fill="#CDCDCD" stroke="#CDCDCD"/>
<path d="M127.41 35.1494L3.68968 34.9906V39.3187H128.036C138.986 42.8482 161.164 50.9273 162.28 55.0081L160.575 48.1295C155.679 48.7478 136.216 39.7867 127.41 35.1494Z" fill="#606060" stroke="#606060"/>
<path d="M2 34.182V39.9539" stroke="white" stroke-width="3"/>
<rect x="11.457" y="19.3802" width="22.6628" height="10.8112" rx="2" fill="#373737"/>
<rect x="15.0831" y="19.3802" width="15.4107" height="10.8112" fill="#D9D9D9"/>
<rect x="58.2457" y="19.3802" width="22.6628" height="10.8112" rx="2" fill="#373737"/>
<rect x="61.8718" y="19.3802" width="15.4107" height="10.8112" fill="#D9D9D9"/>
<path d="M3.46767 8.00618C4.60993 5.86206 8.06452 1.56362 10.6375 1.53299C13.324 1.34155 17.5829 1.03525 13.1262 1.34155C15.0359 1.18897 18.4641 0.989318 20.0729 1.12383L36.5585 1.22669H100.032C106.46 1.77253 120.587 3.89186 125.67 8.00249C83.9248 7.97707 3.46766 7.94582 3.46767 8.00618Z" fill="#606060"/>
<path d="M128.037 7.91083C127.426 7.91045 126.299 8.00288 125.67 8.00249M20.0729 1.12383C18.4641 0.989318 15.0359 1.18897 13.1262 1.34155C17.5829 1.03525 13.324 1.34155 10.6375 1.53299C8.06452 1.56362 4.60993 5.86206 3.46767 8.00618C3.46766 7.94582 83.9248 7.97707 125.67 8.00249M20.0729 1.12383C20.5499 1.16371 20.8669 1.23297 20.937 1.34155C21.2433 1.81633 20.4885 1.39423 20.0729 1.12383ZM20.0729 1.12383L36.5585 1.22669H100.032C106.46 1.77253 120.587 3.89186 125.67 8.00249" stroke="#606060"/>
<path d="M126.098 6.70737C126.725 7.06766 128.256 7.72342 128.455 7.89636" stroke="white"/>
<path d="M123.796 6.79385C124.156 6.94159 126.425 7.79476 126.65 8.25305" stroke="#606060"/>
<path d="M3.18773 9.1704C3.3102 8.04484 4.82534 3.14147 7.87659 1" stroke="white"/>
<path d="M15.082 78.0266C15.082 78.6432 15.2034 79.2536 15.4393 79.8232C15.6753 80.3928 16.0211 80.9104 16.457 81.3463C16.893 81.7823 17.4105 82.1281 17.9801 82.364C18.5497 82.5999 19.1602 82.7214 19.7767 82.7214C20.3932 82.7214 21.0037 82.5999 21.5733 82.364C22.1429 82.1281 22.6604 81.7823 23.0964 81.3463C23.5323 80.9104 23.8781 80.3928 24.1141 79.8232C24.35 79.2536 24.4714 78.6432 24.4714 78.0266L19.7767 78.0266H15.082Z" fill="black"/>
<path d="M28.0413 78.0266C28.0413 78.6432 28.1628 79.2536 28.3987 79.8232C28.6346 80.3928 28.9804 80.9104 29.4164 81.3463C29.8523 81.7823 30.3699 82.1281 30.9395 82.364C31.509 82.5999 32.1195 82.7214 32.7361 82.7214C33.3526 82.7214 33.9631 82.5999 34.5327 82.364C35.1022 82.1281 35.6198 81.7823 36.0557 81.3463C36.4917 80.9104 36.8375 80.3928 37.0734 79.8232C37.3094 79.2536 37.4308 78.6432 37.4308 78.0266L32.7361 78.0266H28.0413Z" fill="black"/>
<path d="M41.0007 78.0266C41.0007 78.6432 41.1221 79.2536 41.358 79.8232C41.594 80.3928 41.9398 80.9104 42.3757 81.3463C42.8117 81.7823 43.3292 82.1281 43.8988 82.364C44.4684 82.5999 45.0789 82.7214 45.6954 82.7214C46.3119 82.7214 46.9224 82.5999 47.492 82.364C48.0616 82.1281 48.5791 81.7823 49.0151 81.3463C49.451 80.9104 49.7968 80.3928 50.0328 79.8232C50.2687 79.2536 50.3901 78.6432 50.3901 78.0266L45.6954 78.0266H41.0007Z" fill="black"/>
<path d="M105.58 78.0266C105.58 78.6432 105.701 79.2536 105.937 79.8232C106.173 80.3928 106.519 80.9104 106.955 81.3463C107.391 81.7823 107.908 82.1281 108.478 82.364C109.048 82.5999 109.658 82.7214 110.275 82.7214C110.891 82.7214 111.502 82.5999 112.071 82.364C112.641 82.1281 113.158 81.7823 113.594 81.3463C114.03 80.9104 114.376 80.3928 114.612 79.8232C114.848 79.2536 114.969 78.6432 114.969 78.0266L110.275 78.0266H105.58Z" fill="black"/>
<path d="M118.539 78.0266C118.539 78.6432 118.661 79.2536 118.897 79.8232C119.133 80.3928 119.478 80.9104 119.914 81.3463C120.35 81.7823 120.868 82.1281 121.437 82.364C122.007 82.5999 122.617 82.7214 123.234 82.7214C123.85 82.7214 124.461 82.5999 125.031 82.364C125.6 82.1281 126.118 81.7823 126.554 81.3463C126.99 80.9104 127.335 80.3928 127.571 79.8232C127.807 79.2536 127.929 78.6432 127.929 78.0266L123.234 78.0266H118.539Z" fill="black"/>
<path d="M131.499 78.0266C131.499 78.6432 131.62 79.2536 131.856 79.8232C132.092 80.3928 132.438 80.9104 132.874 81.3463C133.31 81.7823 133.827 82.1281 134.397 82.364C134.966 82.5999 135.577 82.7214 136.193 82.7214C136.81 82.7214 137.42 82.5999 137.99 82.364C138.559 82.1281 139.077 81.7823 139.513 81.3463C139.949 80.9104 140.295 80.3928 140.531 79.8232C140.767 79.2536 140.888 78.6432 140.888 78.0266L136.193 78.0266H131.499Z" fill="black"/>
<path d="M129.999 40.5266C140.833 44.36 162.599 52.8266 162.999 56.0266" stroke="black"/>
<line x1="129.499" y1="40.5266" x2="130.499" y2="40.5266" stroke="black"/>
<line x1="128.499" y1="40.5266" x2="129.499" y2="40.5266" stroke="black"/>
<path d="M157.999 33.5266C159.999 39.5266 168.999 69.5266 164.999 62.5266" stroke="white" stroke-width="3"/>
<path d="M161.499 36.5266C162.166 40.86 164.399 50.2266 167.999 53.0266" stroke="white" stroke-width="3"/>
<path d="M142.999 79.5266C152.499 84.0266 163.999 70.5266 164.999 59.5266M158.499 78.5266L163.999 68.0266" stroke="white" stroke-width="3"/>
<path d="M144.499 79.5266C148.999 79.36 168.999 72.5266 162.499 70.0266" stroke="white" stroke-width="3"/>
<path d="M151.499 78.0266C153.666 77.0266 160.999 72.0266 161.499 69.5266" stroke="white" stroke-width="3"/>
<path d="M165.499 56.0266C165.666 56.5266 164.999 58.5266 165.499 59.5266" stroke="white" stroke-width="3"/>
</svg>
