<svg width="167" height="85" viewBox="0 0 167 85" fill="none" xmlns="http://www.w3.org/2000/svg">
<path d="M3.49921 13.178C3.49921 7.65513 7.97636 3.17798 13.4992 3.17798H153.499C159.022 3.17798 163.499 7.65513 163.499 13.178V70.178C163.499 75.7008 159.022 80.178 153.499 80.178H13.4992C7.97636 80.178 3.49921 75.7008 3.49921 70.178V13.178Z" fill="#8D8D8D"/>
<path d="M127.074 37.3008L3.6897 37.142V41.4701H127.074H127.698H162.953V37.3008H127.074Z" fill="#606060"/>
<path d="M127.698 41.4701H127.074M127.074 41.4701H3.6897V37.142L127.074 37.3008H162.953V41.4701H127.074Z" stroke="#606060"/>
<path d="M2 36.3334V42.1053" stroke="white" stroke-width="3"/>
<rect x="24.4714" y="21.5315" width="22.6628" height="10.8112" rx="2" fill="#373737"/>
<rect x="28.0975" y="21.5315" width="15.4107" height="10.8112" fill="#D9D9D9"/>
<rect x="72.0846" y="21.5315" width="22.6628" height="10.8112" rx="2" fill="#373737"/>
<rect x="75.7107" y="21.5315" width="15.4107" height="10.8112" fill="#D9D9D9"/>
<rect x="119.697" y="21.5315" width="22.6628" height="10.8112" rx="2" fill="#373737"/>
<rect x="123.323" y="21.5315" width="15.4107" height="10.8112" fill="#D9D9D9"/>
<path d="M3.46765 10.1575C4.60991 8.01337 8.0645 3.71492 10.6375 3.68429C13.324 3.49285 17.5829 3.18656 13.1262 3.49286C15.0359 3.34028 18.4641 3.14062 20.0729 3.27513L36.5585 3.378H100.032C106.46 3.92384 120.587 6.04317 125.67 10.1538C83.9248 10.1284 3.46765 10.0971 3.46765 10.1575Z" fill="#606060"/>
<path d="M128.037 10.0621C127.426 10.0618 126.299 10.1542 125.67 10.1538M20.0729 3.27513C18.4641 3.14062 15.0359 3.34028 13.1262 3.49286C17.5829 3.18656 13.324 3.49285 10.6375 3.68429C8.0645 3.71492 4.60991 8.01337 3.46765 10.1575C3.46765 10.0971 83.9248 10.1284 125.67 10.1538M20.0729 3.27513C20.5499 3.31502 20.8669 3.38428 20.9369 3.49286C21.2432 3.96763 20.4885 3.54553 20.0729 3.27513ZM20.0729 3.27513L36.5585 3.378H100.032C106.46 3.92384 120.587 6.04317 125.67 10.1538" stroke="#606060"/>
<path d="M163.953 10.1575C162.81 8.01337 159.356 3.71492 156.783 3.68429C154.096 3.49285 149.837 3.18656 154.294 3.49286C152.385 3.34028 148.956 3.14062 147.348 3.27513L130.862 3.378H67.3881C60.9601 3.92384 46.8333 6.04317 41.7505 10.1538C83.4956 10.1284 163.953 10.0971 163.953 10.1575Z" fill="#606060"/>
<path d="M39.383 10.0621C39.9944 10.0618 41.1214 10.1542 41.7505 10.1538M147.348 3.27513C148.956 3.14062 152.385 3.34028 154.294 3.49286C149.838 3.18656 154.096 3.49285 156.783 3.68429C159.356 3.71492 162.81 8.01337 163.953 10.1575C163.953 10.0971 83.4956 10.1284 41.7505 10.1538M147.348 3.27513C146.871 3.31502 146.554 3.38428 146.483 3.49286C146.177 3.96763 146.932 3.54553 147.348 3.27513ZM147.348 3.27513L130.862 3.378H67.3881C60.9601 3.92384 46.8333 6.04317 41.7505 10.1538" stroke="#606060"/>
<path d="M123.796 8.94519C124.156 9.09292 126.425 9.9461 126.65 10.4044" stroke="#606060"/>
<path d="M3.18774 11.3218C3.31022 10.1962 4.82535 5.29284 7.87661 3.15137" stroke="white"/>
<path d="M17.082 80.1781C17.082 80.7946 17.2034 81.4051 17.4393 81.9747C17.6753 82.5443 18.0211 83.0618 18.457 83.4977C18.893 83.9337 19.4105 84.2795 19.9801 84.5154C20.5497 84.7514 21.1602 84.8728 21.7767 84.8728C22.3932 84.8728 23.0037 84.7514 23.5733 84.5154C24.1429 84.2795 24.6604 83.9337 25.0964 83.4977C25.5323 83.0618 25.8781 82.5443 26.1141 81.9747C26.35 81.4051 26.4714 80.7946 26.4714 80.1781L21.7767 80.1781H17.082Z" fill="black"/>
<path d="M30.0413 80.1781C30.0413 80.7946 30.1628 81.4051 30.3987 81.9747C30.6346 82.5443 30.9804 83.0618 31.4164 83.4977C31.8523 83.9337 32.3699 84.2795 32.9395 84.5154C33.509 84.7514 34.1195 84.8728 34.7361 84.8728C35.3526 84.8728 35.9631 84.7514 36.5327 84.5154C37.1022 84.2795 37.6198 83.9337 38.0557 83.4977C38.4917 83.0618 38.8375 82.5443 39.0734 81.9747C39.3094 81.4051 39.4308 80.7946 39.4308 80.1781L34.7361 80.1781H30.0413Z" fill="black"/>
<path d="M43.0007 80.1781C43.0007 80.7946 43.1221 81.4051 43.358 81.9747C43.594 82.5443 43.9398 83.0618 44.3757 83.4977C44.8117 83.9337 45.3292 84.2795 45.8988 84.5154C46.4684 84.7514 47.0789 84.8728 47.6954 84.8728C48.3119 84.8728 48.9224 84.7514 49.492 84.5154C50.0616 84.2795 50.5791 83.9337 51.0151 83.4977C51.451 83.0618 51.7968 82.5443 52.0328 81.9747C52.2687 81.4051 52.3901 80.7946 52.3901 80.1781L47.6954 80.1781H43.0007Z" fill="black"/>
<path d="M114.58 80.1781C114.58 80.7946 114.701 81.4051 114.937 81.9747C115.173 82.5443 115.519 83.0618 115.955 83.4977C116.391 83.9337 116.908 84.2795 117.478 84.5154C118.048 84.7514 118.658 84.8728 119.275 84.8728C119.891 84.8728 120.502 84.7514 121.071 84.5154C121.641 84.2795 122.158 83.9337 122.594 83.4977C123.03 83.0618 123.376 82.5443 123.612 81.9747C123.848 81.4051 123.969 80.7946 123.969 80.1781L119.275 80.1781H114.58Z" fill="black"/>
<path d="M127.539 80.1781C127.539 80.7946 127.661 81.4051 127.897 81.9747C128.133 82.5443 128.478 83.0618 128.914 83.4977C129.35 83.9337 129.868 84.2795 130.437 84.5154C131.007 84.7514 131.617 84.8728 132.234 84.8728C132.85 84.8728 133.461 84.7514 134.031 84.5154C134.6 84.2795 135.118 83.9337 135.554 83.4977C135.99 83.0618 136.335 82.5443 136.571 81.9747C136.807 81.4051 136.929 80.7946 136.929 80.1781L132.234 80.1781H127.539Z" fill="black"/>
<path d="M140.499 80.1781C140.499 80.7946 140.62 81.4051 140.856 81.9747C141.092 82.5443 141.438 83.0618 141.874 83.4977C142.31 83.9337 142.827 84.2795 143.397 84.5154C143.966 84.7514 144.577 84.8728 145.193 84.8728C145.81 84.8728 146.42 84.7514 146.99 84.5154C147.559 84.2795 148.077 83.9337 148.513 83.4977C148.949 83.0618 149.295 82.5443 149.531 81.9747C149.767 81.4051 149.888 80.7946 149.888 80.1781L145.193 80.1781H140.499Z" fill="black"/>
<path d="M154.933 1C159.831 3.41107 164.309 8.34801 164.003 13.2849" stroke="white"/>
<path d="M163.391 5.74561L165.878 13.0553" stroke="white" stroke-width="2"/>
<path d="M4.02136 42.5H163.021V70C163.021 75.2467 158.768 79.5 153.521 79.5H13.5214C8.27466 79.5 4.02136 75.2467 4.02136 70V42.5Z" fill="#79F665" stroke="black"/>
</svg>
