<svg width="391" height="42" viewBox="0 0 391 42" fill="none" xmlns="http://www.w3.org/2000/svg">
<path d="M0.499207 31.9555C0.499207 26.4327 4.97636 21.9555 10.4992 21.9555H130.499V41.9555H10.4992C4.97636 41.9555 0.499207 37.4784 0.499207 31.9555Z" fill="#69CEFA"/>
<rect x="130.499" y="21.9555" width="130" height="20" fill="#79F665"/>
<path d="M260.499 21.9555H380.499C386.022 21.9555 390.499 26.4327 390.499 31.9555C390.499 37.4784 386.022 41.9555 380.499 41.9555H260.499V21.9555Z" fill="#EF5454"/>
<path d="M347.712 3.92438C347.232 3.92438 346.822 3.75354 346.482 3.41188C346.143 3.07021 345.973 2.65771 345.973 2.17438C345.973 1.69104 346.143 1.27854 346.482 0.936877C346.822 0.595211 347.232 0.424377 347.712 0.424377C348.193 0.424377 348.603 0.595211 348.943 0.936877C349.282 1.27854 349.452 1.69104 349.452 2.17438C349.452 2.65771 349.282 3.07021 348.943 3.41188C348.603 3.75354 348.193 3.92438 347.712 3.92438ZM345.724 16.4244V11.4244H344.73V6.92438C344.73 6.37438 344.925 5.90354 345.314 5.51188C345.704 5.12021 346.172 4.92438 346.718 4.92438H348.707C349.253 4.92438 349.721 5.12021 350.111 5.51188C350.5 5.90354 350.695 6.37438 350.695 6.92438V11.4244H349.701V16.4244H345.724Z" fill="#666666"/>
<path d="M18.4749 3.92438C17.9944 3.92438 17.5843 3.75354 17.2447 3.41188C16.9051 3.07021 16.7352 2.65771 16.7352 2.17438C16.7352 1.69104 16.9051 1.27854 17.2447 0.936877C17.5843 0.595211 17.9944 0.424377 18.4749 0.424377C18.9553 0.424377 19.3654 0.595211 19.705 0.936877C20.0447 1.27854 20.2145 1.69104 20.2145 2.17438C20.2145 2.65771 20.0447 3.07021 19.705 3.41188C19.3654 3.75354 18.9553 3.92438 18.4749 3.92438ZM16.4867 16.4244V11.4244H15.4926V6.92438C15.4926 6.37438 15.6873 5.90354 16.0767 5.51188C16.466 5.12021 16.934 4.92438 17.4808 4.92438H19.4689C20.0157 4.92438 20.4837 5.12021 20.873 5.51188C21.2624 5.90354 21.4571 6.37438 21.4571 6.92438V11.4244H20.463V16.4244H16.4867Z" fill="#666666"/>
<path d="M35.0156 3.92438C34.5351 3.92438 34.125 3.75354 33.7854 3.41188C33.4458 3.07021 33.2759 2.65771 33.2759 2.17438C33.2759 1.69104 33.4458 1.27854 33.7854 0.936877C34.125 0.595211 34.5351 0.424377 35.0156 0.424377C35.496 0.424377 35.9061 0.595211 36.2457 0.936877C36.5854 1.27854 36.7552 1.69104 36.7552 2.17438C36.7552 2.65771 36.5854 3.07021 36.2457 3.41188C35.9061 3.75354 35.496 3.92438 35.0156 3.92438ZM33.0274 16.4244V11.4244H32.0334V6.92438C32.0334 6.37438 32.228 5.90354 32.6174 5.51188C33.0067 5.12021 33.4748 4.92438 34.0215 4.92438H36.0096C36.5564 4.92438 37.0244 5.12021 37.4138 5.51188C37.8031 5.90354 37.9978 6.37438 37.9978 6.92438V11.4244H37.0037V16.4244H33.0274Z" fill="#D9D9D9"/>
<path d="M364.253 3.92438C363.773 3.92438 363.363 3.75354 363.023 3.41188C362.683 3.07021 362.514 2.65771 362.514 2.17438C362.514 1.69104 362.683 1.27854 363.023 0.936877C363.363 0.595211 363.773 0.424377 364.253 0.424377C364.734 0.424377 365.144 0.595211 365.483 0.936877C365.823 1.27854 365.993 1.69104 365.993 2.17438C365.993 2.65771 365.823 3.07021 365.483 3.41188C365.144 3.75354 364.734 3.92438 364.253 3.92438ZM362.265 16.4244V11.4244H361.271V6.92438C361.271 6.37438 361.466 5.90354 361.855 5.51188C362.244 5.12021 362.712 4.92438 363.259 4.92438H365.247C365.794 4.92438 366.262 5.12021 366.651 5.51188C367.041 5.90354 367.235 6.37438 367.235 6.92438V11.4244H366.241V16.4244H362.265Z" fill="#D9D9D9"/>
<path d="M26.7452 3.92438C26.2648 3.92438 25.8547 3.75354 25.5151 3.41188C25.1754 3.07021 25.0056 2.65771 25.0056 2.17438C25.0056 1.69104 25.1754 1.27854 25.5151 0.936877C25.8547 0.595211 26.2648 0.424377 26.7452 0.424377C27.2257 0.424377 27.6358 0.595211 27.9754 0.936877C28.315 1.27854 28.4849 1.69104 28.4849 2.17438C28.4849 2.65771 28.315 3.07021 27.9754 3.41188C27.6358 3.75354 27.2257 3.92438 26.7452 3.92438ZM24.7571 16.4244V11.4244H23.763V6.92438C23.763 6.37438 23.9577 5.90354 24.347 5.51188C24.7364 5.12021 25.2044 4.92438 25.7512 4.92438H27.7393C28.286 4.92438 28.7541 5.12021 29.1434 5.51188C29.5328 5.90354 29.7274 6.37438 29.7274 6.92438V11.4244H28.7334V16.4244H24.7571Z" fill="#D9D9D9"/>
<path d="M355.983 3.92438C355.502 3.92438 355.092 3.75354 354.753 3.41188C354.413 3.07021 354.243 2.65771 354.243 2.17438C354.243 1.69104 354.413 1.27854 354.753 0.936877C355.092 0.595211 355.502 0.424377 355.983 0.424377C356.463 0.424377 356.873 0.595211 357.213 0.936877C357.553 1.27854 357.723 1.69104 357.723 2.17438C357.723 2.65771 357.553 3.07021 357.213 3.41188C356.873 3.75354 356.463 3.92438 355.983 3.92438ZM353.995 16.4244V11.4244H353.001V6.92438C353.001 6.37438 353.195 5.90354 353.585 5.51188C353.974 5.12021 354.442 4.92438 354.989 4.92438H356.977C357.524 4.92438 357.992 5.12021 358.381 5.51188C358.77 5.90354 358.965 6.37438 358.965 6.92438V11.4244H357.971V16.4244H353.995Z" fill="#D9D9D9"/>
<path d="M43.2859 3.92438C42.8055 3.92438 42.3954 3.75354 42.0558 3.41188C41.7161 3.07021 41.5463 2.65771 41.5463 2.17438C41.5463 1.69104 41.7161 1.27854 42.0558 0.936877C42.3954 0.595211 42.8055 0.424377 43.2859 0.424377C43.7664 0.424377 44.1764 0.595211 44.5161 0.936877C44.8557 1.27854 45.0255 1.69104 45.0255 2.17438C45.0255 2.65771 44.8557 3.07021 44.5161 3.41188C44.1764 3.75354 43.7664 3.92438 43.2859 3.92438ZM41.2978 16.4244V11.4244H40.3037V6.92438C40.3037 6.37438 40.4984 5.90354 40.8877 5.51188C41.2771 5.12021 41.7451 4.92438 42.2918 4.92438H44.28C44.8267 4.92438 45.2948 5.12021 45.6841 5.51188C46.0735 5.90354 46.2681 6.37438 46.2681 6.92438V11.4244H45.2741V16.4244H41.2978Z" fill="#D9D9D9"/>
<path d="M372.524 3.92438C372.043 3.92438 371.633 3.75354 371.293 3.41188C370.954 3.07021 370.784 2.65771 370.784 2.17438C370.784 1.69104 370.954 1.27854 371.293 0.936877C371.633 0.595211 372.043 0.424377 372.524 0.424377C373.004 0.424377 373.414 0.595211 373.754 0.936877C374.093 1.27854 374.263 1.69104 374.263 2.17438C374.263 2.65771 374.093 3.07021 373.754 3.41188C373.414 3.75354 373.004 3.92438 372.524 3.92438ZM370.535 16.4244V11.4244H369.541V6.92438C369.541 6.37438 369.736 5.90354 370.125 5.51188C370.515 5.12021 370.983 4.92438 371.529 4.92438H373.518C374.064 4.92438 374.532 5.12021 374.922 5.51188C375.311 5.90354 375.506 6.37438 375.506 6.92438V11.4244H374.512V16.4244H370.535Z" fill="#D9D9D9"/>
<path d="M355.983 3.92438C355.502 3.92438 355.092 3.75354 354.753 3.41188C354.413 3.07021 354.243 2.65771 354.243 2.17438C354.243 1.69104 354.413 1.27854 354.753 0.936877C355.092 0.595211 355.502 0.424377 355.983 0.424377C356.463 0.424377 356.873 0.595211 357.213 0.936877C357.553 1.27854 357.723 1.69104 357.723 2.17438C357.723 2.65771 357.553 3.07021 357.213 3.41188C356.873 3.75354 356.463 3.92438 355.983 3.92438ZM353.995 16.4244V11.4244H353.001V6.92438C353.001 6.37438 353.195 5.90354 353.585 5.51188C353.974 5.12021 354.442 4.92438 354.989 4.92438H356.977C357.524 4.92438 357.992 5.12021 358.381 5.51188C358.77 5.90354 358.965 6.37438 358.965 6.92438V11.4244H357.971V16.4244H353.995Z" fill="#666666"/>
<path d="M364.253 3.92438C363.773 3.92438 363.363 3.75354 363.023 3.41188C362.683 3.07021 362.514 2.65771 362.514 2.17438C362.514 1.69104 362.683 1.27854 363.023 0.936877C363.363 0.595211 363.773 0.424377 364.253 0.424377C364.734 0.424377 365.144 0.595211 365.483 0.936877C365.823 1.27854 365.993 1.69104 365.993 2.17438C365.993 2.65771 365.823 3.07021 365.483 3.41188C365.144 3.75354 364.734 3.92438 364.253 3.92438ZM362.265 16.4244V11.4244H361.271V6.92438C361.271 6.37438 361.466 5.90354 361.855 5.51188C362.244 5.12021 362.712 4.92438 363.259 4.92438H365.247C365.794 4.92438 366.262 5.12021 366.651 5.51188C367.041 5.90354 367.235 6.37438 367.235 6.92438V11.4244H366.241V16.4244H362.265Z" fill="#666666"/>
<path d="M372.524 3.92438C372.043 3.92438 371.633 3.75354 371.293 3.41188C370.954 3.07021 370.784 2.65771 370.784 2.17438C370.784 1.69104 370.954 1.27854 371.293 0.936877C371.633 0.595211 372.043 0.424377 372.524 0.424377C373.004 0.424377 373.414 0.595211 373.754 0.936877C374.093 1.27854 374.263 1.69104 374.263 2.17438C374.263 2.65771 374.093 3.07021 373.754 3.41188C373.414 3.75354 373.004 3.92438 372.524 3.92438ZM370.535 16.4244V11.4244H369.541V6.92438C369.541 6.37438 369.736 5.90354 370.125 5.51188C370.515 5.12021 370.983 4.92438 371.529 4.92438H373.518C374.064 4.92438 374.532 5.12021 374.922 5.51188C375.311 5.90354 375.506 6.37438 375.506 6.92438V11.4244H374.512V16.4244H370.535Z" fill="#666666"/>
</svg>
