<svg width="169" height="83" viewBox="0 0 169 83" fill="none" xmlns="http://www.w3.org/2000/svg">
<path d="M3.49915 11.0266C3.49915 5.50379 7.9763 1.02664 13.4991 1.02664H98.2449C134.284 1.02664 163.499 30.242 163.499 66.2809C163.499 72.7679 158.24 78.0266 151.753 78.0266H13.4991C7.9763 78.0266 3.49915 73.5495 3.49915 68.0266V11.0266Z" fill="#8D8D8D"/>
<line y1="-0.5" x2="7.7989" y2="-0.5" transform="matrix(0.377597 0.92597 -0.997137 0.0756214 158.809 48.9082)" stroke="white"/>
<path d="M162.999 40.5266H3.99915V68.0266C3.99915 73.2733 8.25244 77.5266 13.4991 77.5266H143.499C154.269 77.5266 162.999 68.7962 162.999 58.0266V40.5266Z" fill="#79F665" stroke="black"/>
<path d="M83.6036 67.2454C82.9474 67.235 82.2911 67.11 81.6349 66.8704C80.9786 66.6308 80.3797 66.2272 79.838 65.6595C79.2964 65.0865 78.8615 64.3131 78.5333 63.3391C78.2052 62.36 78.0411 61.1308 78.0411 59.6516C78.0411 58.235 78.174 56.9798 78.4396 55.886C78.7052 54.7871 79.0906 53.8626 79.5958 53.1126C80.101 52.3574 80.7104 51.7845 81.424 51.3938C82.1427 51.0032 82.9526 50.8079 83.8536 50.8079C84.7495 50.8079 85.5464 50.9876 86.2443 51.347C86.9474 51.7011 87.5203 52.1959 87.963 52.8313C88.4057 53.4667 88.6922 54.1985 88.8224 55.0266H86.9161C86.7391 54.3079 86.3953 53.7115 85.8849 53.2376C85.3745 52.7636 84.6974 52.5266 83.8536 52.5266C82.6141 52.5266 81.6375 53.0657 80.924 54.1438C80.2156 55.222 79.8589 56.735 79.8536 58.6829H79.9786C80.2703 58.2402 80.6167 57.8626 81.0177 57.5501C81.424 57.2324 81.8719 56.9876 82.3615 56.8157C82.851 56.6438 83.3693 56.5579 83.9161 56.5579C84.8328 56.5579 85.6714 56.7871 86.4318 57.2454C87.1922 57.6985 87.8016 58.3261 88.2599 59.1282C88.7182 59.9251 88.9474 60.8391 88.9474 61.8704C88.9474 62.86 88.726 63.7662 88.2833 64.5891C87.8406 65.4069 87.2182 66.0579 86.4161 66.5423C85.6193 67.0214 84.6818 67.2558 83.6036 67.2454ZM83.6036 65.5266C84.2599 65.5266 84.8484 65.3626 85.3693 65.0345C85.8953 64.7063 86.3094 64.2662 86.6115 63.7141C86.9187 63.1621 87.0724 62.5475 87.0724 61.8704C87.0724 61.2089 86.924 60.6074 86.6271 60.0657C86.3354 59.5188 85.9318 59.0839 85.4161 58.761C84.9057 58.4381 84.3224 58.2766 83.6661 58.2766C83.1714 58.2766 82.7104 58.3756 82.2833 58.5735C81.8562 58.7662 81.4812 59.0319 81.1583 59.3704C80.8406 59.7089 80.5906 60.097 80.4083 60.5345C80.226 60.9667 80.1349 61.4225 80.1349 61.9016C80.1349 62.5371 80.2833 63.1308 80.5802 63.6829C80.8823 64.235 81.2937 64.6803 81.8146 65.0188C82.3406 65.3574 82.937 65.5266 83.6036 65.5266Z" fill="black"/>
<path d="M128.192 8.83823C117.855 17.6497 108.893 33.875 160.491 47.5697C157.447 29.4484 138.468 13.8272 128.192 8.83823Z" fill="#CDCDCD" stroke="#CDCDCD"/>
<path d="M127.41 35.1494L3.6897 34.9906V39.3187H128.036C138.986 42.8482 161.164 50.9273 162.28 55.0081L160.575 48.1295C155.679 48.7478 136.216 39.7867 127.41 35.1494Z" fill="#606060" stroke="#606060"/>
<path d="M2 34.182V39.9539" stroke="white" stroke-width="3"/>
<rect x="11.457" y="19.3802" width="22.6628" height="10.8112" rx="2" fill="#373737"/>
<rect x="15.0831" y="19.3802" width="15.4107" height="10.8112" fill="#D9D9D9"/>
<rect x="58.2457" y="19.3802" width="22.6628" height="10.8112" rx="2" fill="#373737"/>
<rect x="61.8718" y="19.3802" width="15.4107" height="10.8112" fill="#D9D9D9"/>
<path d="M3.46765 8.00618C4.60991 5.86206 8.0645 1.56362 10.6375 1.53299C13.324 1.34155 17.5829 1.03525 13.1262 1.34155C15.0359 1.18897 18.4641 0.989318 20.0729 1.12383L36.5585 1.22669H100.032C106.46 1.77253 120.587 3.89186 125.67 8.00249C83.9248 7.97707 3.46765 7.94582 3.46765 8.00618Z" fill="#606060"/>
<path d="M128.037 7.91083C127.426 7.91045 126.299 8.00288 125.67 8.00249M20.0729 1.12383C18.4641 0.989318 15.0359 1.18897 13.1262 1.34155C17.5829 1.03525 13.324 1.34155 10.6375 1.53299C8.0645 1.56362 4.60991 5.86206 3.46765 8.00618C3.46765 7.94582 83.9248 7.97707 125.67 8.00249M20.0729 1.12383C20.5499 1.16371 20.8669 1.23297 20.9369 1.34155C21.2432 1.81633 20.4885 1.39423 20.0729 1.12383ZM20.0729 1.12383L36.5585 1.22669H100.032C106.46 1.77253 120.587 3.89186 125.67 8.00249" stroke="#606060"/>
<path d="M126.098 6.70737C126.725 7.06766 128.256 7.72342 128.455 7.89636" stroke="white"/>
<path d="M123.796 6.79385C124.156 6.94159 126.425 7.79476 126.65 8.25305" stroke="#606060"/>
<path d="M3.18774 9.1704C3.31022 8.04484 4.82535 3.14147 7.87661 1" stroke="white"/>
<path d="M15.082 78.0266C15.082 78.6432 15.2034 79.2536 15.4393 79.8232C15.6753 80.3928 16.0211 80.9104 16.457 81.3463C16.893 81.7823 17.4105 82.1281 17.9801 82.364C18.5497 82.5999 19.1602 82.7214 19.7767 82.7214C20.3932 82.7214 21.0037 82.5999 21.5733 82.364C22.1429 82.1281 22.6604 81.7823 23.0964 81.3463C23.5323 80.9104 23.8781 80.3928 24.1141 79.8232C24.35 79.2536 24.4714 78.6432 24.4714 78.0266L19.7767 78.0266H15.082Z" fill="black"/>
<path d="M28.0413 78.0266C28.0413 78.6432 28.1628 79.2536 28.3987 79.8232C28.6346 80.3928 28.9804 80.9104 29.4164 81.3463C29.8523 81.7823 30.3699 82.1281 30.9395 82.364C31.509 82.5999 32.1195 82.7214 32.7361 82.7214C33.3526 82.7214 33.9631 82.5999 34.5327 82.364C35.1022 82.1281 35.6198 81.7823 36.0557 81.3463C36.4917 80.9104 36.8375 80.3928 37.0734 79.8232C37.3094 79.2536 37.4308 78.6432 37.4308 78.0266L32.7361 78.0266H28.0413Z" fill="black"/>
<path d="M41.0007 78.0266C41.0007 78.6432 41.1221 79.2536 41.358 79.8232C41.594 80.3928 41.9398 80.9104 42.3757 81.3463C42.8117 81.7823 43.3292 82.1281 43.8988 82.364C44.4684 82.5999 45.0789 82.7214 45.6954 82.7214C46.3119 82.7214 46.9224 82.5999 47.492 82.364C48.0616 82.1281 48.5791 81.7823 49.0151 81.3463C49.451 80.9104 49.7968 80.3928 50.0328 79.8232C50.2687 79.2536 50.3901 78.6432 50.3901 78.0266L45.6954 78.0266H41.0007Z" fill="black"/>
<path d="M105.58 78.0266C105.58 78.6432 105.701 79.2536 105.937 79.8232C106.173 80.3928 106.519 80.9104 106.955 81.3463C107.391 81.7823 107.908 82.1281 108.478 82.364C109.048 82.5999 109.658 82.7214 110.275 82.7214C110.891 82.7214 111.502 82.5999 112.071 82.364C112.641 82.1281 113.158 81.7823 113.594 81.3463C114.03 80.9104 114.376 80.3928 114.612 79.8232C114.848 79.2536 114.969 78.6432 114.969 78.0266L110.275 78.0266H105.58Z" fill="black"/>
<path d="M118.539 78.0266C118.539 78.6432 118.661 79.2536 118.897 79.8232C119.132 80.3928 119.478 80.9104 119.914 81.3463C120.35 81.7823 120.868 82.1281 121.437 82.364C122.007 82.5999 122.617 82.7214 123.234 82.7214C123.85 82.7214 124.461 82.5999 125.031 82.364C125.6 82.1281 126.118 81.7823 126.554 81.3463C126.99 80.9104 127.335 80.3928 127.571 79.8232C127.807 79.2536 127.929 78.6432 127.929 78.0266L123.234 78.0266H118.539Z" fill="black"/>
<path d="M131.499 78.0266C131.499 78.6432 131.62 79.2536 131.856 79.8232C132.092 80.3928 132.438 80.9104 132.874 81.3463C133.31 81.7823 133.827 82.1281 134.397 82.364C134.966 82.5999 135.577 82.7214 136.193 82.7214C136.81 82.7214 137.42 82.5999 137.99 82.364C138.559 82.1281 139.077 81.7823 139.513 81.3463C139.949 80.9104 140.295 80.3928 140.531 79.8232C140.767 79.2536 140.888 78.6432 140.888 78.0266L136.193 78.0266H131.499Z" fill="black"/>
<path d="M129.999 40.5266C140.832 44.36 162.599 52.8266 162.999 56.0266" stroke="black"/>
<line x1="129.499" y1="40.5266" x2="130.499" y2="40.5266" stroke="black"/>
<line x1="128.499" y1="40.5266" x2="129.499" y2="40.5266" stroke="black"/>
<path d="M157.999 33.5266C159.999 39.5266 168.999 69.5266 164.999 62.5266" stroke="white" stroke-width="3"/>
<path d="M161.499 36.5266C162.166 40.86 164.399 50.2266 167.999 53.0266" stroke="white" stroke-width="3"/>
<path d="M142.999 79.5266C152.499 84.0266 163.999 70.5266 164.999 59.5266M158.499 78.5266L163.999 68.0266" stroke="white" stroke-width="3"/>
<path d="M144.499 79.5266C148.999 79.36 168.999 72.5266 162.499 70.0266" stroke="white" stroke-width="3"/>
<path d="M151.499 78.0266C153.666 77.0266 160.999 72.0266 161.499 69.5266" stroke="white" stroke-width="3"/>
<path d="M165.499 56.0266C165.666 56.5266 164.999 58.5266 165.499 59.5266" stroke="white" stroke-width="3"/>
</svg>
