<svg width="41" height="41" viewBox="0 0 41 41" fill="none" xmlns="http://www.w3.org/2000/svg">
<circle cx="20.0395" cy="20.4244" r="20" fill="#3FDE25"/>
<path d="M15.0356 28.4244V27.0181L20.3169 21.2369C20.9366 20.5598 21.4471 19.9713 21.8481 19.4713C22.2491 18.966 22.546 18.4921 22.7387 18.0494C22.9366 17.6015 23.0356 17.1327 23.0356 16.6431C23.0356 16.0806 22.9002 15.5936 22.6294 15.1822C22.3637 14.7707 21.9991 14.453 21.5356 14.2291C21.0721 14.0051 20.5512 13.8931 19.9731 13.8931C19.3585 13.8931 18.8221 14.0207 18.3637 14.2759C17.9106 14.5259 17.559 14.8775 17.309 15.3306C17.0643 15.7838 16.9419 16.315 16.9419 16.9244H15.0981C15.0981 15.9869 15.3143 15.164 15.7465 14.4556C16.1788 13.7473 16.7674 13.1952 17.5122 12.7994C18.2622 12.4035 19.1033 12.2056 20.0356 12.2056C20.9731 12.2056 21.8038 12.4035 22.5278 12.7994C23.2518 13.1952 23.8195 13.7291 24.2309 14.4009C24.6424 15.0728 24.8481 15.8202 24.8481 16.6431C24.8481 17.2317 24.7413 17.8072 24.5278 18.3697C24.3195 18.927 23.9549 19.5494 23.434 20.2369C22.9184 20.9192 22.2023 21.7525 21.2856 22.7369L17.6919 26.5806V26.7056H25.1294V28.4244H15.0356Z" fill="white"/>
</svg>
