<svg width="41" height="41" viewBox="0 0 41 41" fill="none" xmlns="http://www.w3.org/2000/svg">
<circle cx="20.9431" cy="20.4244" r="20" fill="#E19808"/>
<path d="M21.0017 28.6431C19.9704 28.6431 19.0512 28.466 18.2439 28.1119C17.4418 27.7577 16.8038 27.2655 16.3298 26.6353C15.8611 25.9999 15.6058 25.2629 15.5642 24.4244H17.5329C17.5746 24.94 17.7517 25.3853 18.0642 25.7603C18.3767 26.1301 18.7855 26.4166 19.2907 26.6197C19.7959 26.8228 20.3558 26.9244 20.9704 26.9244C21.6579 26.9244 22.2673 26.8046 22.7986 26.565C23.3298 26.3254 23.7465 25.9921 24.0486 25.565C24.3506 25.1379 24.5017 24.6431 24.5017 24.0806C24.5017 23.4921 24.3558 22.9739 24.0642 22.5259C23.7725 22.0728 23.3454 21.7186 22.7829 21.4634C22.2204 21.2082 21.5329 21.0806 20.7204 21.0806H19.4392V19.3619H20.7204C21.3558 19.3619 21.9131 19.2473 22.3923 19.0181C22.8767 18.789 23.2543 18.466 23.5251 18.0494C23.8012 17.6327 23.9392 17.1431 23.9392 16.5806C23.9392 16.039 23.8194 15.5676 23.5798 15.1666C23.3402 14.7655 23.0017 14.453 22.5642 14.2291C22.1319 14.0051 21.6215 13.8931 21.0329 13.8931C20.4808 13.8931 19.96 13.9947 19.4704 14.1978C18.9861 14.3957 18.5902 14.6848 18.2829 15.065C17.9756 15.44 17.809 15.8931 17.7829 16.4244H15.9079C15.9392 15.5858 16.1918 14.8515 16.6657 14.2213C17.1397 13.5858 17.7595 13.091 18.5251 12.7369C19.2959 12.3827 20.1423 12.2056 21.0642 12.2056C22.0538 12.2056 22.9027 12.4061 23.6111 12.8072C24.3194 13.203 24.8637 13.7265 25.2439 14.3775C25.6241 15.0285 25.8142 15.7317 25.8142 16.4869C25.8142 17.3879 25.5772 18.1561 25.1032 18.7916C24.6345 19.427 23.9965 19.8671 23.1892 20.1119V20.2369C24.1996 20.4035 24.9887 20.8332 25.5564 21.5259C26.1241 22.2134 26.4079 23.065 26.4079 24.0806C26.4079 24.9504 26.1709 25.7317 25.697 26.4244C25.2282 27.1119 24.5876 27.6535 23.7751 28.0494C22.9626 28.4452 22.0381 28.6431 21.0017 28.6431Z" fill="white"/>
</svg>
